<?xml version="1.0"?>
<svg xmlns="http://www.w3.org/2000/svg" height="512px" viewBox="0 0 512 512" width="512px"><g><g id="solid"><path d="m147.328 270.378-75.907 120.187 17.168-1.565a8.1 8.1 0 0 1 .627-1.244l67.326-107.721q-4.825-4.611-9.214-9.657z" data-original="#000000" class="active-path" data-old_color="#000000" fill="#C7EBFF"/><path d="m256 272a96 96 0 1 0 -96-96 96.108 96.108 0 0 0 96 96zm-77.4-119.308a8 8 0 0 1 6.447-5.459l43.775-6.455 19.5-39.721a8 8 0 0 1 7.164-4.475h.018a8 8 0 0 1 7.166 4.444l19.667 39.639 43.8 6.27a8 8 0 0 1 4.462 13.636l-31.62 30.953 7.572 43.6a8 8 0 0 1 -11.59 8.458l-39.212-20.512-39.123 20.674a8 8 0 0 1 -11.626-8.409l7.389-43.627-31.752-30.819a8 8 0 0 1 -2.037-8.197z" data-original="#000000" class="active-path" data-old_color="#000000" fill="#C7EBFF"/><path d="m256 304a128 128 0 1 0 -128-128 128.144 128.144 0 0 0 128 128zm0-240a112 112 0 1 1 -112 112 112.127 112.127 0 0 1 112-112z" data-original="#000000" class="active-path" data-old_color="#000000" fill="#C7EBFF"/><path d="m228.866 190.232-5.384 31.792 28.51-15.065a8 8 0 0 1 7.445-.016l28.573 14.945-5.518-31.769a8 8 0 0 1 2.286-7.086l23.042-22.557-31.92-4.569a8 8 0 0 1 -6.032-4.364l-14.332-28.884-14.209 28.941a8 8 0 0 1 -6.015 4.389l-31.9 4.7 23.137 22.459a8 8 0 0 1 2.317 7.084z" data-original="#000000" class="active-path" data-old_color="#000000" fill="#C7EBFF"/><path d="m279.365 318.094 67.825 107.723 13.291-36.551a8.006 8.006 0 0 1 8.243-5.233l34.842 3.167-60.409-96.654a143.33 143.33 0 0 1 -63.792 27.548z" data-original="#000000" class="active-path" data-old_color="#000000" fill="#C7EBFF"/><path d="m364.672 270.378q-4.383 5.04-9.214 9.661l67.326 107.721a8.1 8.1 0 0 1 .627 1.244l17.168 1.561z" data-original="#000000" class="active-path" data-old_color="#000000" fill="#C7EBFF"/><path d="m261.583 319.882c-1.854.071-3.713.118-5.583.118-4.279 0-8.511-.2-12.7-.566l90.727 142.571 6.256-17.2c-.133-.177-.271-.349-.391-.539z" data-original="#000000" class="active-path" data-old_color="#000000" fill="#C7EBFF"/><path d="m222.133 315.967a143.52 143.52 0 0 1 -53.29-25.421l-60.409 96.654 34.842-3.167a8.006 8.006 0 0 1 8.243 5.233l13.291 36.551 63.275-100.5z" data-original="#000000" class="active-path" data-old_color="#000000" fill="#C7EBFF"/><path d="m172.1 444.263c-.12.19-.258.362-.391.539l6.256 17.2 68.548-107.719-8.928-14.03z" data-original="#000000" class="active-path" data-old_color="#000000" fill="#C7EBFF"/></g></g> </svg>
